PathFileType	4	(X/Y/Z)	./resultDataOpenSim/trcMotMarkerGrf/sub06/qtm-14-08.trc
DataRate	CameraRate	NumFrames	NumMarkers	Units	OrigDataRate	OrigDataStartFrame	OrigNumFrames
250.000000	250.000000	14	24	m	250.000000	330	527
Frame#	Time	L.Toe.Tip			R.Toe.Tip			L.Ankle.Lat			R.Ankle.Lat			L.Ankle.Med			R.Ankle.Med			L.Heel			R.Heel			L.Knee.Lat			R.Knee.Lat			L.Knee.Med			R.Knee.Med			L.Thigh.Upper			R.Thigh.Upper			L.ASIS			R.ASIS			V.Sacral			L.Acromium			R.Acromium			C7			L.Elbow			R.Elbow			L.Wrist.Lat			R.Wrist.Lat
		X1	Y1	Z1	X2	Y2	Z2	X3	Y3	Z3	X4	Y4	Z4	X5	Y5	Z5	X6	Y6	Z6	X7	Y7	Z7	X8	Y8	Z8	X9	Y9	Z9	X10	Y10	Z10	X11	Y11	Z11	X12	Y12	Z12	X13	Y13	Z13	X14	Y14	Z14	X15	Y15	Z15	X16	Y16	Z16	X17	Y17	Z17	X18	Y18	Z18	X19	Y19	Z19	X20	Y20	Z20	X21	Y21	Z21	X22	Y22	Z22	X23	Y23	Z23	X24	Y24	Z24

330	1.316	0.39547255	0.10959	-0.059268589	0.90957512	0.035343553	0.051447249	0.40550491	0.23977134	-0.09545576	0.77462361	0.059236254	0.084080668	0.43405015	0.24475593	-0.015410526	0.78907783	0.082255365	-0.0031899621	0.36707422	0.3005308	-0.042508282	0.71585914	0.039225164	0.028606526	0.74524978	0.3791866	-0.16473972	0.86419014	0.43570037	0.12338482	0.76105218	0.36605223	-0.040873966	0.82335186	0.43058175	0.0032638432	0.66166172	0.76445835	-0.13784046	0.72916309	0.78647764	0.19893603	0.74509145	0.81532361	-0.11268286	0.80193359	0.83603234	0.12787476	0.59489601	0.90678717	0.045462606	0.75113669	1.3128158	-0.15810801	0.74903094	1.2826275	0.20219164	0.67865371	1.3433342	0.023464831	0.75446085	0.98481422	-0.21678901	0.61195066	0.99607665	0.26177419	0.96564327	0.85900405	-0.17987943	0.72434208	0.78972373	0.33630616
331	1.32	0.40895598	0.11232638	-0.060075933	0.9095233	0.035354205	0.051409907	0.41808145	0.24254782	-0.096304015	0.77461147	0.059269263	0.084105778	0.44674406	0.24767184	-0.016369784	0.7889595	0.082404472	-0.0031034913	0.37929256	0.30304135	-0.043395037	0.7157906	0.039312571	0.028689993	0.75739819	0.38303961	-0.16554301	0.86485118	0.43594206	0.1233558	0.77299423	0.36979388	-0.041494519	0.8234723	0.43088762	0.003354319	0.66871502	0.7672483	-0.13810129	0.73419371	0.78844317	0.1992999	0.75181389	0.818203	-0.11199065	0.80711487	0.83853623	0.12869961	0.60066546	0.90896332	0.045189568	0.75615929	1.3151841	-0.15828178	0.75437674	1.285417	0.20201617	0.68379514	1.3456346	0.023308977	0.75723574	0.98722943	-0.21695156	0.61993136	0.99739685	0.26284732	0.96676019	0.85836948	-0.18171381	0.7381788	0.79338582	0.33530052
332	1.324	0.42254163	0.11483099	-0.060984057	0.90947726	0.035361923	0.051355269	0.43067661	0.24510693	-0.097138658	0.77461532	0.05928351	0.08410753	0.45944359	0.25035533	-0.017315136	0.78884725	0.082550883	-0.0030353232	0.39150611	0.30540276	-0.044442116	0.71570892	0.039410855	0.028795484	0.76948487	0.38696894	-0.16627688	0.8655181	0.43620802	0.12334104	0.78489314	0.37361452	-0.04208626	0.82362256	0.43114543	0.0032815187	0.67578811	0.77005549	-0.13833471	0.73927049	0.79038428	0.19956759	0.75842428	0.82099894	-0.11150841	0.81229001	0.84104291	0.12944138	0.60644138	0.91115406	0.044983658	0.76119275	1.3175221	-0.15845177	0.75969887	1.2882253	0.20183993	0.68888401	1.3479363	0.023179205	0.76001313	0.98966248	-0.21690076	0.62785679	0.99878761	0.26385027	0.96780939	0.85776856	-0.18362099	0.75195915	0.79726314	0.33423698
333	1.328	0.43622169	0.11710802	-0.061958398	0.90943307	0.035368035	0.051285691	0.44329778	0.24744982	-0.09796535	0.77461757	0.05930758	0.084106874	0.47214602	0.25281266	-0.018244982	0.78873891	0.082698086	-0.0029842663	0.40371386	0.30757276	-0.045528764	0.71561875	0.039520682	0.028913739	0.78145785	0.39095803	-0.1669488	0.8661918	0.43647654	0.12331628	0.79673537	0.37751173	-0.042638914	0.82387715	0.43135804	0.0030577464	0.68287555	0.7728831	-0.1385276	0.74433312	0.79227262	0.19968853	0.76491446	0.82373661	-0.11119049	0.81746009	0.8435362	0.13010099	0.61211455	0.91332661	0.044692575	0.76623394	1.3198289	-0.1586112	0.76499862	1.2910481	0.20166232	0.69395847	1.3502151	0.023033938	0.76278007	0.99210437	-0.21676986	0.63575479	1.0002472	0.26480363	0.96879312	0.85719901	-0.18559938	0.76567651	0.80133608	0.33311833
334	1.332	0.44998175	0.11916942	-0.062941638	0.9093899	0.035374027	0.051203624	0.45594257	0.24958147	-0.098788016	0.77458573	0.059360752	0.084127597	0.48485021	0.25504745	-0.019160592	0.78863368	0.082847149	-0.0029471551	0.41590563	0.3094732	-0.046502514	0.71553543	0.039636809	0.0290218	0.79325905	0.3950176	-0.16760458	0.8668006	0.43673263	0.12321015	0.80848997	0.38148252	-0.043138345	0.82419255	0.43153553	0.0027639472	0.68996846	0.77572633	-0.13873407	0.74934878	0.7940893	0.19965396	0.77133216	0.82646834	-0.11093442	0.82263214	0.846002	0.13068543	0.61763059	0.91546019	0.044236685	0.77128582	1.3220981	-0.15875654	0.77028136	1.2938757	0.20148646	0.69903863	1.3524613	0.022845928	0.76553102	0.99454972	-0.21662253	0.64367817	1.0017718	0.26574549	0.96971275	0.8566615	-0.18763861	0.77931991	0.805589	0.33194741
335	1.336	0.46382437	0.1210251	-0.063936324	0.9093504	0.035380613	0.051112085	0.46859544	0.25150735	-0.099607009	0.77449171	0.059448228	0.084184359	0.49755225	0.25706164	-0.020062452	0.78853467	0.082996643	-0.0029182834	0.42806344	0.31104978	-0.047273033	0.71547036	0.03975742	0.029104413	0.80489394	0.39916109	-0.1682775	0.86724918	0.43697583	0.12295431	0.82007845	0.3855245	-0.043553996	0.8244389	0.4317087	0.002487319	0.69707073	0.77857149	-0.13907486	0.75432363	0.79583691	0.19949602	0.7777258	0.82923656	-0.11063518	0.82780978	0.84842121	0.13120219	0.62305304	0.9175569	0.043682892	0.77635569	1.3243209	-0.15889172	0.77555492	1.2966978	0.20131804	0.7041237	1.3546686	0.022618549	0.76826798	0.99699474	-0.21646763	0.65167066	1.0033474	0.26670369	0.97056831	0.85615586	-0.18972686	0.79287526	0.81000598	0.33072589
336	1.34	0.47776844	0.12267872	-0.065009925	0.90931707	0.035387774	0.051015662	0.48124242	0.2532268	-0.10042398	0.77435594	0.059565111	0.08426527	0.51024056	0.25885733	-0.020947392	0.78844793	0.083144856	-0.0028940879	0.44017973	0.31228995	-0.047836512	0.71542253	0.039888294	0.029163965	0.81645243	0.40335323	-0.16892433	0.86754306	0.43721331	0.12257292	0.83139326	0.38963514	-0.043845497	0.82449732	0.43190844	0.002279175	0.70420358	0.78140196	-0.13964574	0.75930657	0.79753343	0.19926661	0.7841244	0.83208333	-0.1101679	0.83299181	0.85076958	0.13165808	0.62849131	0.91962645	0.0431428	0.78144561	1.3264926	-0.15901865	0.78082443	1.2995056	0.20116067	0.70919869	1.3568329	0.02238826	0.77099476	0.99943639	-0.21629791	0.65975145	1.0049517	0.26768518	0.97136192	0.85567398	-0.19185904	0.80632525	0.81456695	0.3294499
337	1.344	0.49183407	0.12412957	-0.066217699	0.90928919	0.035394417	0.050918551	0.49389225	0.25473031	-0.10124508	0.77424499	0.059697103	0.084335822	0.52289596	0.26043607	-0.021808813	0.78838097	0.083290643	-0.0028790141	0.45226624	0.31321837	-0.048284765	0.71538658	0.040035394	0.029205349	0.82801833	0.40752558	-0.16947924	0.86781761	0.43744979	0.12219109	0.8424198	0.39379789	-0.044008507	0.82436916	0.43212816	0.0021599138	0.71137517	0.78421165	-0.14041818	0.76437205	0.79918662	0.19900383	0.79048963	0.83501932	-0.10946592	0.83817865	0.85302438	0.13206359	0.63400891	0.92167007	0.04266801	0.78654569	1.3286146	-0.15913165	0.7860885	1.3022914	0.20101143	0.71425254	1.3589533	0.022189199	0.77371815	1.0018741	-0.21611689	0.6679046	1.0065552	0.26867543	0.97209626	0.85520848	-0.19403435	0.81965412	0.81924858	0.32811207
338	1.348	0.50603607	0.12537543	-0.067564248	0.90926414	0.035399304	0.050821648	0.50657937	0.25600576	-0.10208405	0.77420051	0.059827713	0.084374051	0.53550705	0.26179805	-0.022644807	0.78834047	0.083433796	-0.0028818546	0.46433787	0.31387171	-0.048755282	0.71536049	0.040198901	0.029226917	0.83957831	0.41163447	-0.16993126	0.86821988	0.43768251	0.1219245	0.85330928	0.39797461	-0.044098331	0.82411096	0.43235548	0.0021135146	0.71855837	0.78700947	-0.14125264	0.76958834	0.80079218	0.19871421	0.79675392	0.83797151	-0.10864458	0.84337405	0.85516824	0.13243095	0.63962192	0.92368247	0.042283132	0.79164234	1.3306892	-0.15922645	0.79134115	1.3050466	0.20086373	0.71928731	1.361031	0.022024465	0.7764483	1.0043065	-0.21593913	0.67608549	1.0081297	0.26964889	0.97276644	0.85476608	-0.19625306	0.83286205	0.82403634	0.32671493
339	1.352	0.52038374	0.12641729	-0.069025363	0.90924048	0.035402213	0.050723986	0.51933738	0.25704971	-0.10295905	0.77420575	0.059949534	0.084388224	0.54811016	0.26294177	-0.023475465	0.78832429	0.083579346	-0.00289987	0.4763994	0.31426579	-0.049339396	0.71533964	0.04037823	0.02923509	0.85106106	0.41568462	-0.17029951	0.86879741	0.43790656	0.12179378	0.86425588	0.40213149	-0.044183586	0.8236458	0.43264574	0.00206377	0.72571797	0.78980796	-0.14201856	0.77495009	0.80235143	0.19838944	0.80298105	0.84081928	-0.10793124	0.84857772	0.85719023	0.13276637	0.64534847	0.92565697	0.04206169	0.7967266	1.3327156	-0.15930755	0.79657656	1.3077628	0.20071363	0.72431035	1.3630648	0.021876466	0.77919232	1.0067282	-0.21577137	0.68426072	1.0096648	0.27059281	0.97336143	0.85435884	-0.19851585	0.84597034	0.82893487	0.32527627
340	1.356	0.53487788	0.12726282	-0.070572915	0.90921859	0.035403979	0.050626595	0.53216201	0.25786952	-0.1038725	0.77422733	0.060065739	0.084396827	0.56080595	0.26386084	-0.024345276	0.78831812	0.08373955	-0.0029118046	0.48844582	0.31439294	-0.05003546	0.71530698	0.040579426	0.029259908	0.86243376	0.41971126	-0.17058263	0.86947203	0.43812412	0.1217416	0.87534477	0.40626656	-0.04429713	0.82286895	0.43309953	0.0019300881	0.73284646	0.79261047	-0.14267335	0.78029099	0.80384983	0.19804027	0.80939949	0.84349189	-0.10743841	0.85378057	0.85908715	0.13306801	0.65121876	0.92758267	0.042097287	0.80179295	1.3346918	-0.1593824	0.80179309	1.3104302	0.20056099	0.72932603	1.3650487	0.021729871	0.78194972	1.0091305	-0.21560834	0.69244064	1.0111739	0.27152139	0.97388183	0.85398044	-0.20081965	0.85900227	0.83395614	0.32381356
341	1.36	0.54950403	0.12792032	-0.072176785	0.9091993	0.035406331	0.050533815	0.5450064	0.25847399	-0.10480199	0.77425046	0.060183225	0.084410139	0.57366758	0.26453862	-0.025276358	0.78830892	0.083925659	-0.0028959723	0.50046457	0.31424688	-0.050771771	0.7152477	0.040808262	0.02933164	0.87371705	0.42374203	-0.17075922	0.87006756	0.43834415	0.1216833	0.88653445	0.41039798	-0.044432101	0.82194747	0.43375087	0.0017247503	0.73996263	0.79540921	-0.14321747	0.78535239	0.80523112	0.19770134	0.81622702	0.8460153	-0.10706881	0.85897171	0.86086144	0.13333312	0.6572027	0.92944203	0.042355708	0.8068384	1.3366154	-0.15945235	0.80699526	1.3130379	0.20040749	0.73433603	1.3669751	0.021581689	0.78471466	1.0115036	-0.21544799	0.70065439	1.0126725	0.27245814	0.97434814	0.85360522	-0.20315367	0.8719622	0.83909343	0.322331
342	1.364	0.56423208	0.12838792	-0.073802273	0.90918307	0.035410688	0.050451663	0.55782831	0.25886697	-0.10573119	0.77427484	0.060307264	0.084430916	0.58661943	0.26496241	-0.026223955	0.78829767	0.084140045	-0.0028490876	0.51244592	0.31383475	-0.051474192	0.71518111	0.04105442	0.029433086	0.88492414	0.42776734	-0.17081595	0.87041381	0.43857314	0.12155403	0.89772049	0.41453648	-0.044549722	0.82121984	0.43451141	0.001517863	0.74708769	0.79818797	-0.14363743	0.79004874	0.80644938	0.197397	0.82346725	0.84846777	-0.10666059	0.86414557	0.86251579	0.13356378	0.663165	0.93122154	0.042606986	0.81186346	1.3384826	-0.15951309	0.81219016	1.3155772	0.20025488	0.73934035	1.3688425	0.021440685	0.78747945	1.0138395	-0.21530346	0.70890667	1.0141582	0.27341119	0.97478041	0.85321583	-0.20550276	0.8848357	0.84430714	0.32082633
343	1.368	0.57905053	0.12865507	-0.07543528	0.90917043	0.035416464	0.050384668	0.57064073	0.25904567	-0.10667895	0.77430114	0.06044143	0.084460432	0.59948804	0.26515388	-0.027114982	0.78829324	0.084378057	-0.0027811134	0.52439711	0.31316592	-0.052128005	0.71515541	0.041295105	0.029504169	0.89603269	0.43175067	-0.17077118	0.87048913	0.43881054	0.12135285	0.90881273	0.41867471	-0.044599326	0.82087978	0.4352314	0.001329935	0.75422581	0.80091444	-0.14395237	0.79456141	0.80752985	0.19711775	0.83087163	0.85089517	-0.10617528	0.86930033	0.86405188	0.13376571	0.66897917	0.93292724	0.042606271	0.81687079	1.3402879	-0.15956241	0.81738192	1.3180452	0.20010348	0.74433671	1.3706572	0.021322172	0.79023576	1.0161344	-0.21520801	0.71717882	1.015617	0.27437336	0.97517896	0.8528169	-0.20785482	0.89760264	0.84954224	0.31930029
